<mxfile host="app.diagrams.net" agent="Mozilla/5.0 (Macintosh; Intel Mac OS X 10_15_7) AppleWebKit/537.36 (KHTML, like Gecko) Chrome/128.0.0.0 Safari/537.36" version="24.7.8">
  <diagram id="C5RBs43oDa-KdzZeNtuy" name="Page-1">
    <mxGraphModel grid="1" page="1" gridSize="10" guides="1" tooltips="1" connect="1" arrows="1" fold="1" pageScale="1" pageWidth="827" pageHeight="1169" math="0" shadow="0">
      <root>
        <mxCell id="WIyWlLk6GJQsqaUBKTNV-0" />
        <mxCell id="WIyWlLk6GJQsqaUBKTNV-1" parent="WIyWlLk6GJQsqaUBKTNV-0" />
        <mxCell id="Hh-bwKl13hHau7YYCVfA-6" value="" style="endArrow=none;html=1;rounded=0;" edge="1" parent="WIyWlLk6GJQsqaUBKTNV-1">
          <mxGeometry width="50" height="50" relative="1" as="geometry">
            <mxPoint x="293.14" y="720" as="sourcePoint" />
            <mxPoint x="293.14" y="700" as="targetPoint" />
          </mxGeometry>
        </mxCell>
        <mxCell id="-kc7LpVqmu0i_-9FvMV2-0" value="" style="shape=umlActor;verticalLabelPosition=bottom;verticalAlign=top;html=1;" vertex="1" parent="WIyWlLk6GJQsqaUBKTNV-1">
          <mxGeometry x="185" y="660" width="30" height="60" as="geometry" />
        </mxCell>
        <mxCell id="Hh-bwKl13hHau7YYCVfA-0" value="" style="endArrow=none;html=1;rounded=0;curved=0;" edge="1" parent="WIyWlLk6GJQsqaUBKTNV-1">
          <mxGeometry width="50" height="50" relative="1" as="geometry">
            <mxPoint y="720" as="sourcePoint" />
            <mxPoint x="820" y="720" as="targetPoint" />
          </mxGeometry>
        </mxCell>
        <mxCell id="Hh-bwKl13hHau7YYCVfA-4" value="" style="verticalLabelPosition=bottom;html=1;verticalAlign=top;align=center;shape=mxgraph.floorplan.plant;" vertex="1" parent="WIyWlLk6GJQsqaUBKTNV-1">
          <mxGeometry x="280" y="680" width="27" height="31" as="geometry" />
        </mxCell>
        <mxCell id="Hh-bwKl13hHau7YYCVfA-7" value="" style="endArrow=none;html=1;rounded=0;" edge="1" parent="WIyWlLk6GJQsqaUBKTNV-1">
          <mxGeometry width="50" height="50" relative="1" as="geometry">
            <mxPoint x="433.14" y="720" as="sourcePoint" />
            <mxPoint x="433.14" y="700" as="targetPoint" />
          </mxGeometry>
        </mxCell>
        <mxCell id="Hh-bwKl13hHau7YYCVfA-8" value="" style="verticalLabelPosition=bottom;html=1;verticalAlign=top;align=center;shape=mxgraph.floorplan.plant;" vertex="1" parent="WIyWlLk6GJQsqaUBKTNV-1">
          <mxGeometry x="420" y="680" width="27" height="31" as="geometry" />
        </mxCell>
        <mxCell id="Hh-bwKl13hHau7YYCVfA-11" value="" style="endArrow=none;html=1;rounded=0;" edge="1" parent="WIyWlLk6GJQsqaUBKTNV-1">
          <mxGeometry width="50" height="50" relative="1" as="geometry">
            <mxPoint x="543.14" y="720" as="sourcePoint" />
            <mxPoint x="543.14" y="700" as="targetPoint" />
          </mxGeometry>
        </mxCell>
        <mxCell id="Hh-bwKl13hHau7YYCVfA-12" value="" style="verticalLabelPosition=bottom;html=1;verticalAlign=top;align=center;shape=mxgraph.floorplan.plant;" vertex="1" parent="WIyWlLk6GJQsqaUBKTNV-1">
          <mxGeometry x="530" y="680" width="27" height="31" as="geometry" />
        </mxCell>
        <mxCell id="Hh-bwKl13hHau7YYCVfA-13" value="" style="shape=image;html=1;verticalAlign=top;verticalLabelPosition=bottom;labelBackgroundColor=#ffffff;imageAspect=0;aspect=fixed;image=https://cdn0.iconfinder.com/data/icons/phosphor-regular-vol-4/256/tree-128.png" vertex="1" parent="WIyWlLk6GJQsqaUBKTNV-1">
          <mxGeometry x="429" y="600" width="128" height="128" as="geometry" />
        </mxCell>
        <mxCell id="Hh-bwKl13hHau7YYCVfA-14" value="" style="shape=image;html=1;verticalAlign=top;verticalLabelPosition=bottom;labelBackgroundColor=#ffffff;imageAspect=0;aspect=fixed;image=https://cdn0.iconfinder.com/data/icons/phosphor-duotone-vol-3/256/tree-evergreen-duotone-128.png" vertex="1" parent="WIyWlLk6GJQsqaUBKTNV-1">
          <mxGeometry x="630" y="600" width="128" height="128" as="geometry" />
        </mxCell>
        <mxCell id="Hh-bwKl13hHau7YYCVfA-16" value="" style="shape=image;html=1;verticalAlign=top;verticalLabelPosition=bottom;labelBackgroundColor=#ffffff;imageAspect=0;aspect=fixed;image=https://cdn4.iconfinder.com/data/icons/football-outline-14/32/football-33-128.png" vertex="1" parent="WIyWlLk6GJQsqaUBKTNV-1">
          <mxGeometry x="230" y="702" width="18" height="18" as="geometry" />
        </mxCell>
        <mxCell id="Hh-bwKl13hHau7YYCVfA-17" value="" style="shape=image;html=1;verticalAlign=top;verticalLabelPosition=bottom;labelBackgroundColor=#ffffff;imageAspect=0;aspect=fixed;image=https://cdn4.iconfinder.com/data/icons/football-outline-14/32/football-33-128.png" vertex="1" parent="WIyWlLk6GJQsqaUBKTNV-1">
          <mxGeometry x="240" y="702" width="18" height="18" as="geometry" />
        </mxCell>
        <mxCell id="Hh-bwKl13hHau7YYCVfA-18" value="" style="shape=image;html=1;verticalAlign=top;verticalLabelPosition=bottom;labelBackgroundColor=#ffffff;imageAspect=0;aspect=fixed;image=https://cdn4.iconfinder.com/data/icons/football-outline-14/32/football-33-128.png" vertex="1" parent="WIyWlLk6GJQsqaUBKTNV-1">
          <mxGeometry x="248" y="702" width="18" height="18" as="geometry" />
        </mxCell>
        <mxCell id="Hh-bwKl13hHau7YYCVfA-19" value="" style="shape=image;html=1;verticalAlign=top;verticalLabelPosition=bottom;labelBackgroundColor=#ffffff;imageAspect=0;aspect=fixed;image=https://cdn4.iconfinder.com/data/icons/football-outline-14/32/football-33-128.png" vertex="1" parent="WIyWlLk6GJQsqaUBKTNV-1">
          <mxGeometry x="258" y="702" width="18" height="18" as="geometry" />
        </mxCell>
        <mxCell id="Hh-bwKl13hHau7YYCVfA-25" value="" style="shape=image;html=1;verticalAlign=top;verticalLabelPosition=bottom;labelBackgroundColor=#ffffff;imageAspect=0;aspect=fixed;image=https://cdn4.iconfinder.com/data/icons/football-outline-14/32/football-33-128.png" vertex="1" parent="WIyWlLk6GJQsqaUBKTNV-1">
          <mxGeometry x="490" y="702" width="18" height="18" as="geometry" />
        </mxCell>
        <mxCell id="Hh-bwKl13hHau7YYCVfA-26" value="" style="shape=image;html=1;verticalAlign=top;verticalLabelPosition=bottom;labelBackgroundColor=#ffffff;imageAspect=0;aspect=fixed;image=https://cdn4.iconfinder.com/data/icons/football-outline-14/32/football-33-128.png" vertex="1" parent="WIyWlLk6GJQsqaUBKTNV-1">
          <mxGeometry x="500" y="702" width="18" height="18" as="geometry" />
        </mxCell>
        <mxCell id="Hh-bwKl13hHau7YYCVfA-27" value="" style="shape=image;html=1;verticalAlign=top;verticalLabelPosition=bottom;labelBackgroundColor=#ffffff;imageAspect=0;aspect=fixed;image=https://cdn4.iconfinder.com/data/icons/football-outline-14/32/football-33-128.png" vertex="1" parent="WIyWlLk6GJQsqaUBKTNV-1">
          <mxGeometry x="508" y="702" width="18" height="18" as="geometry" />
        </mxCell>
        <mxCell id="Hh-bwKl13hHau7YYCVfA-28" value="" style="shape=image;html=1;verticalAlign=top;verticalLabelPosition=bottom;labelBackgroundColor=#ffffff;imageAspect=0;aspect=fixed;image=https://cdn4.iconfinder.com/data/icons/football-outline-14/32/football-33-128.png" vertex="1" parent="WIyWlLk6GJQsqaUBKTNV-1">
          <mxGeometry x="518" y="702" width="18" height="18" as="geometry" />
        </mxCell>
        <mxCell id="Hh-bwKl13hHau7YYCVfA-29" value="" style="shape=image;html=1;verticalAlign=top;verticalLabelPosition=bottom;labelBackgroundColor=#ffffff;imageAspect=0;aspect=fixed;image=https://cdn4.iconfinder.com/data/icons/football-outline-14/32/football-33-128.png" vertex="1" parent="WIyWlLk6GJQsqaUBKTNV-1">
          <mxGeometry x="350" y="702" width="18" height="18" as="geometry" />
        </mxCell>
        <mxCell id="Hh-bwKl13hHau7YYCVfA-30" value="" style="shape=image;html=1;verticalAlign=top;verticalLabelPosition=bottom;labelBackgroundColor=#ffffff;imageAspect=0;aspect=fixed;image=https://cdn4.iconfinder.com/data/icons/football-outline-14/32/football-33-128.png" vertex="1" parent="WIyWlLk6GJQsqaUBKTNV-1">
          <mxGeometry x="360" y="702" width="18" height="18" as="geometry" />
        </mxCell>
        <mxCell id="Hh-bwKl13hHau7YYCVfA-31" value="" style="shape=image;html=1;verticalAlign=top;verticalLabelPosition=bottom;labelBackgroundColor=#ffffff;imageAspect=0;aspect=fixed;image=https://cdn4.iconfinder.com/data/icons/football-outline-14/32/football-33-128.png" vertex="1" parent="WIyWlLk6GJQsqaUBKTNV-1">
          <mxGeometry x="368" y="702" width="18" height="18" as="geometry" />
        </mxCell>
        <mxCell id="Hh-bwKl13hHau7YYCVfA-32" value="" style="shape=image;html=1;verticalAlign=top;verticalLabelPosition=bottom;labelBackgroundColor=#ffffff;imageAspect=0;aspect=fixed;image=https://cdn4.iconfinder.com/data/icons/football-outline-14/32/football-33-128.png" vertex="1" parent="WIyWlLk6GJQsqaUBKTNV-1">
          <mxGeometry x="378" y="702" width="18" height="18" as="geometry" />
        </mxCell>
        <mxCell id="Hh-bwKl13hHau7YYCVfA-33" value="" style="shape=image;html=1;verticalAlign=top;verticalLabelPosition=bottom;labelBackgroundColor=#ffffff;imageAspect=0;aspect=fixed;image=https://cdn4.iconfinder.com/data/icons/football-outline-14/32/football-33-128.png" vertex="1" parent="WIyWlLk6GJQsqaUBKTNV-1">
          <mxGeometry x="770" y="702" width="18" height="18" as="geometry" />
        </mxCell>
        <mxCell id="Hh-bwKl13hHau7YYCVfA-34" value="" style="shape=image;html=1;verticalAlign=top;verticalLabelPosition=bottom;labelBackgroundColor=#ffffff;imageAspect=0;aspect=fixed;image=https://cdn4.iconfinder.com/data/icons/football-outline-14/32/football-33-128.png" vertex="1" parent="WIyWlLk6GJQsqaUBKTNV-1">
          <mxGeometry x="780" y="702" width="18" height="18" as="geometry" />
        </mxCell>
        <mxCell id="Hh-bwKl13hHau7YYCVfA-35" value="" style="shape=image;html=1;verticalAlign=top;verticalLabelPosition=bottom;labelBackgroundColor=#ffffff;imageAspect=0;aspect=fixed;image=https://cdn4.iconfinder.com/data/icons/football-outline-14/32/football-33-128.png" vertex="1" parent="WIyWlLk6GJQsqaUBKTNV-1">
          <mxGeometry x="788" y="702" width="18" height="18" as="geometry" />
        </mxCell>
        <mxCell id="Hh-bwKl13hHau7YYCVfA-36" value="" style="shape=image;html=1;verticalAlign=top;verticalLabelPosition=bottom;labelBackgroundColor=#ffffff;imageAspect=0;aspect=fixed;image=https://cdn4.iconfinder.com/data/icons/football-outline-14/32/football-33-128.png" vertex="1" parent="WIyWlLk6GJQsqaUBKTNV-1">
          <mxGeometry x="798" y="702" width="18" height="18" as="geometry" />
        </mxCell>
        <mxCell id="Hh-bwKl13hHau7YYCVfA-37" value="" style="shape=image;html=1;verticalAlign=top;verticalLabelPosition=bottom;labelBackgroundColor=#ffffff;imageAspect=0;aspect=fixed;image=https://cdn0.iconfinder.com/data/icons/football-filled-line-3/32/football_-33-128.png" vertex="1" parent="WIyWlLk6GJQsqaUBKTNV-1">
          <mxGeometry x="240" y="707" width="13" height="13" as="geometry" />
        </mxCell>
        <mxCell id="QF-pcH3z01uAIMCVXfS4-0" value="Start: Choose from a selection of texts to type" style="whiteSpace=wrap;html=1;aspect=fixed;" vertex="1" parent="WIyWlLk6GJQsqaUBKTNV-1">
          <mxGeometry x="347" y="70" width="100" height="100" as="geometry" />
        </mxCell>
        <mxCell id="QF-pcH3z01uAIMCVXfS4-4" style="edgeStyle=orthogonalEdgeStyle;rounded=0;orthogonalLoop=1;jettySize=auto;html=1;entryX=0.5;entryY=0;entryDx=0;entryDy=0;" edge="1" parent="WIyWlLk6GJQsqaUBKTNV-1" source="QF-pcH3z01uAIMCVXfS4-1" target="QF-pcH3z01uAIMCVXfS4-3">
          <mxGeometry relative="1" as="geometry" />
        </mxCell>
        <mxCell id="QF-pcH3z01uAIMCVXfS4-1" value="Typing Screen: Type as fast as you can until you reach the end of the document" style="rounded=0;whiteSpace=wrap;html=1;" vertex="1" parent="WIyWlLk6GJQsqaUBKTNV-1">
          <mxGeometry x="337" y="240" width="120" height="60" as="geometry" />
        </mxCell>
        <mxCell id="QF-pcH3z01uAIMCVXfS4-2" value="" style="endArrow=classic;html=1;rounded=0;entryX=0.5;entryY=0;entryDx=0;entryDy=0;exitX=0.5;exitY=1;exitDx=0;exitDy=0;" edge="1" parent="WIyWlLk6GJQsqaUBKTNV-1" source="QF-pcH3z01uAIMCVXfS4-0" target="QF-pcH3z01uAIMCVXfS4-1">
          <mxGeometry width="50" height="50" relative="1" as="geometry">
            <mxPoint x="390" y="240" as="sourcePoint" />
            <mxPoint x="440" y="190" as="targetPoint" />
          </mxGeometry>
        </mxCell>
        <mxCell id="QF-pcH3z01uAIMCVXfS4-8" style="edgeStyle=orthogonalEdgeStyle;rounded=0;orthogonalLoop=1;jettySize=auto;html=1;entryX=0;entryY=0.5;entryDx=0;entryDy=0;" edge="1" parent="WIyWlLk6GJQsqaUBKTNV-1" source="QF-pcH3z01uAIMCVXfS4-3" target="QF-pcH3z01uAIMCVXfS4-0">
          <mxGeometry relative="1" as="geometry">
            <Array as="points">
              <mxPoint x="317" y="400" />
              <mxPoint x="317" y="120" />
            </Array>
          </mxGeometry>
        </mxCell>
        <mxCell id="QF-pcH3z01uAIMCVXfS4-3" value="End Screen: See results" style="rounded=0;whiteSpace=wrap;html=1;" vertex="1" parent="WIyWlLk6GJQsqaUBKTNV-1">
          <mxGeometry x="337" y="370" width="120" height="60" as="geometry" />
        </mxCell>
        <mxCell id="QF-pcH3z01uAIMCVXfS4-7" value="" style="endArrow=classic;html=1;rounded=0;exitX=1;exitY=0.5;exitDx=0;exitDy=0;entryX=1;entryY=0.5;entryDx=0;entryDy=0;" edge="1" parent="WIyWlLk6GJQsqaUBKTNV-1" source="QF-pcH3z01uAIMCVXfS4-3" target="QF-pcH3z01uAIMCVXfS4-1">
          <mxGeometry width="50" height="50" relative="1" as="geometry">
            <mxPoint x="410" y="340" as="sourcePoint" />
            <mxPoint x="460" y="290" as="targetPoint" />
            <Array as="points">
              <mxPoint x="490" y="400" />
              <mxPoint x="490" y="340" />
              <mxPoint x="490" y="270" />
            </Array>
          </mxGeometry>
        </mxCell>
        <mxCell id="ztvEFhj9AKJ3g65c-t-h-0" value="" style="ellipse;whiteSpace=wrap;html=1;aspect=fixed;" vertex="1" parent="WIyWlLk6GJQsqaUBKTNV-1">
          <mxGeometry x="90" y="690" width="30" height="30" as="geometry" />
        </mxCell>
        <mxCell id="ztvEFhj9AKJ3g65c-t-h-1" value="" style="ellipse;whiteSpace=wrap;html=1;aspect=fixed;" vertex="1" parent="WIyWlLk6GJQsqaUBKTNV-1">
          <mxGeometry x="95" y="670" width="20" height="20" as="geometry" />
        </mxCell>
        <mxCell id="ztvEFhj9AKJ3g65c-t-h-2" value="" style="ellipse;whiteSpace=wrap;html=1;aspect=fixed;" vertex="1" parent="WIyWlLk6GJQsqaUBKTNV-1">
          <mxGeometry x="97.5" y="656.5" width="15" height="15" as="geometry" />
        </mxCell>
      </root>
    </mxGraphModel>
  </diagram>
</mxfile>
